<svg width="49" height="50" viewBox="0 0 49 50" fill="none" xmlns="http://www.w3.org/2000/svg">
<rect width="48.9154" height="50" rx="10" fill="#FF9300"/>
<g clip-path="url(#clip0_656_535)">
<path d="M24.5 14.0415L33.0594 15.9436C33.5354 16.0498 33.875 16.4717 33.875 16.9603V27.3634C33.875 29.453 32.8302 31.405 31.0917 32.5634L24.5 36.9582L17.9083 32.5634C16.1687 31.404 15.125 29.453 15.125 27.3644V16.9603C15.125 16.4717 15.4646 16.0498 15.9406 15.9436L24.5 14.0415ZM29.1375 21.5644L23.9812 26.7196L21.0354 23.7738L19.5625 25.2467L23.9823 29.6665L30.6115 23.0373L29.1375 21.5644V21.5644Z" fill="#001D2B"/>
</g>
<defs>
<clipPath id="clip0_656_535">
<rect width="25" height="25" fill="white" transform="translate(12 13)"/>
</clipPath>
</defs>
</svg>
